HIERARCHY
ROOT Hips
{
	OFFSET 0.000000 0.000000 0.000000
	CHANNELS 6 Xposition Yposition Zposition Xrotation Yrotation Zrotation
	JOINT LeftUpLeg_virtual
	{
		OFFSET 0.000000 0.000000 0.000000
		CHANNELS 3 Xrotation Yrotation Zrotation
		JOINT LeftUpLeg
		{
			OFFSET 10.205400 -3.823500 0.155100
			CHANNELS 3 Xrotation Yrotation Zrotation
			JOINT LeftLeg
			{
				OFFSET 0.708757 -12.982077 0.567790
				CHANNELS 3 Xrotation Yrotation Zrotation
				JOINT LeftFoot
				{
					OFFSET -0.708756 -10.717838 -2.184338
					CHANNELS 3 Xrotation Yrotation Zrotation
					JOINT LeftToeBase
					{
						OFFSET 0.108149 -7.191104 7.560241
						CHANNELS 3 Xrotation Yrotation Zrotation
						JOINT LeftToe_End
						{
							OFFSET 0.070230 0.081724 4.490308
							CHANNELS 3 Xrotation Yrotation Zrotation
							End Site
							{
								OFFSET 0 0 0
							}
						}
					}
				}
			}
		}
	}
	JOINT RightUpLeg_virtual
	{
		OFFSET 0.000000 0.000000 0.000000
		CHANNELS 3 Xrotation Yrotation Zrotation
		JOINT RightUpLeg
		{
			OFFSET -10.205400 -3.823500 0.005500
			CHANNELS 3 Xrotation Yrotation Zrotation
			JOINT RightLeg
			{
				OFFSET -0.708756 -12.982134 0.610632
				CHANNELS 3 Xrotation Yrotation Zrotation
				JOINT RightFoot
				{
					OFFSET 0.708754 -10.717769 -1.945823
					CHANNELS 3 Xrotation Yrotation Zrotation
					JOINT RightToeBase
					{
						OFFSET -0.108140 -7.191069 7.372968
						CHANNELS 3 Xrotation Yrotation Zrotation
						JOINT RightToe_End
						{
							OFFSET -0.070227 0.081735 4.479403
							CHANNELS 3 Xrotation Yrotation Zrotation
							End Site
							{
								OFFSET 0 0 0
							}
						}
					}
				}
			}
		}
	}
	JOINT Spine_virtual
	{
		OFFSET 0.000000 0.000000 0.000000
		CHANNELS 3 Xrotation Yrotation Zrotation
		JOINT Spine
		{
			OFFSET 0.000000 6.876099 0.125700
			CHANNELS 3 Xrotation Yrotation Zrotation
			JOINT Spine1
			{
				OFFSET 0.000000 5.730043 0.104720
				CHANNELS 3 Xrotation Yrotation Zrotation
				JOINT Spine1_split
				{
					OFFSET 0.000000 5.730043 0.104720
					CHANNELS 3 Xrotation Yrotation Zrotation
					JOINT Spine2
					{
						OFFSET 0.000000 5.730043 0.104720
						CHANNELS 3 Xrotation Yrotation Zrotation
						JOINT Neck_virtual
						{
							OFFSET 0.000000 0.000000 0.000000
							CHANNELS 3 Xrotation Yrotation Zrotation
							JOINT Neck
							{
								OFFSET 0.000000 10.314075 0.188496
								CHANNELS 3 Xrotation Yrotation Zrotation
								JOINT Head
								{
									OFFSET 0.000000 7.643700 -2.377400
									CHANNELS 3 Xrotation Yrotation Zrotation
									JOINT HeadTop_End
									{
										OFFSET 0.000000 43.788605 -13.619600
										CHANNELS 3 Xrotation Yrotation Zrotation
										End Site
										{
											OFFSET 0 0 0
										}
									}
								}
							}
						}
						JOINT LeftShoulder_virtual
						{
							OFFSET 0.000000 0.000000 0.000000
							CHANNELS 3 Xrotation Yrotation Zrotation
							JOINT LeftShoulder
							{
								OFFSET 2.196100 4.412489 0.087492
								CHANNELS 3 Xrotation Yrotation Zrotation
								JOINT LeftShoulder_split
								{
									OFFSET 2.196100 4.412489 0.087492
									CHANNELS 3 Xrotation Yrotation Zrotation
									JOINT LeftArm
									{
										OFFSET 8.771219 -2.981674 -0.026999
										CHANNELS 3 Xrotation Yrotation Zrotation
										JOINT LeftForeArm
										{
											OFFSET 8.512804 0.000000 -0.000000
											CHANNELS 3 Xrotation Yrotation Zrotation
											JOINT LeftHand
											{
												OFFSET 18.484802 0.000000 -0.000000
												CHANNELS 3 Xrotation Yrotation Zrotation
												End Site
												{
													OFFSET 0 0 0
												}
											}
										}
									}
								}
							}
						}
						JOINT RightShoulder_virtual
						{
							OFFSET 0.000000 0.000000 0.000000
							CHANNELS 3 Xrotation Yrotation Zrotation
							JOINT RightShoulder
							{
								OFFSET -2.196100 4.412496 0.070690
								CHANNELS 3 Xrotation Yrotation Zrotation
								JOINT RightShoulder_split
								{
									OFFSET -2.196100 4.412496 0.070690
									CHANNELS 3 Xrotation Yrotation Zrotation
									JOINT RightArm
									{
										OFFSET -8.771282 -2.981682 -0.094208
										CHANNELS 3 Xrotation Yrotation Zrotation
										JOINT RightForeArm
										{
											OFFSET -8.494598 0.000000 0.000000
											CHANNELS 3 Xrotation Yrotation Zrotation
											JOINT RightHand
											{
												OFFSET -18.483803 0.000000 0.000001
												CHANNELS 3 Xrotation Yrotation Zrotation
												End Site
												{
													OFFSET 0 0 0
												}
											}
										}
									}
								}
							}
						}
					}
				}
			}
		}
	}
}
MOTION
Frames: 10
Frame Time: 0.03333333
-0.065769 71.735939 0.801624 0.000000 0.000000 0.000000 -4.939084 6.347883 7.151784 -11.092455 18.729528 9.881784 12.686092 -5.069549 -1.362462 -19.640527 -0.374448 -1.470395 -1.546286 -0.437350 -1.658232 0.000000 0.000000 0.000000 -3.035849 2.844861 6.284563 3.667661 -4.352423 -7.683599 10.072348 5.213182 2.135699 -30.460229 -5.133265 2.863985 -8.793281 -0.660517 -3.782726 0.000000 0.000000 0.000000 -0.671119 3.553537 5.618453 1.961138 -1.053175 1.690449 10.550241 -0.714305 3.652082 1.409299 1.655364 0.222445 0.000000 0.000000 0.000000 9.654869 -0.929993 3.180646 0.117693 0.536832 -4.397278 7.981646 8.140598 -7.906813 0.000000 0.000000 0.000000 11.002141 -0.982708 2.876239 0.272477 16.101454 -9.014136 -0.805190 -2.040592 -0.555270 1.756265 -12.573665 -60.364706 -0.585408 -48.325856 0.471451 0.000000 0.000000 0.000000 11.251589 -0.483900 3.341839 2.313777 2.775566 7.623086 0.607928 0.784398 -1.160478 -1.977138 7.916379 56.917992 1.590913 38.445823 -1.516950 0.000000 0.000000 0.000000 
-0.129754 71.736839 0.744596 0.000000 0.000000 0.000000 -4.849536 6.645930 7.078135 -11.329737 18.289288 10.065331 12.715048 -4.537946 -1.113248 -19.701240 -0.005285 -1.169746 -1.515466 -0.423108 -1.937305 0.000000 0.000000 0.000000 -2.829918 3.039669 6.096034 3.545601 -4.541521 -7.533241 9.494444 5.013472 2.180947 -30.260713 -5.320498 2.745013 -9.066578 -0.740093 -3.620025 0.000000 0.000000 0.000000 -0.504437 3.248482 5.660184 1.922573 -1.106767 1.671299 10.586634 -0.716622 3.573822 1.018316 1.606837 -0.003208 0.000000 0.000000 0.000000 9.634121 -0.928713 3.127021 -0.370348 0.499924 -4.572026 8.058739 7.847917 -7.757076 0.000000 0.000000 0.000000 11.012036 -0.953282 2.796139 0.269132 15.952115 -8.558067 -1.183093 -1.484584 -0.777762 1.111007 -12.661315 -60.343226 -0.681624 -48.357739 0.299530 0.000000 0.000000 0.000000 11.308733 -0.519596 3.245570 2.250295 2.662752 7.572955 0.370914 0.633514 -1.064978 -2.057363 8.013238 56.724158 1.510242 40.009691 -1.358638 0.000000 0.000000 0.000000 
-0.199133 71.651817 0.661602 0.000000 0.000000 0.000000 -4.468144 6.862195 6.833644 -12.001196 17.905833 10.346585 13.109447 -3.723963 -0.855288 -20.356445 0.702082 -0.487291 -1.790278 -0.412512 -1.891003 0.000000 0.000000 0.000000 -2.305099 3.108395 5.827091 2.920971 -4.667043 -7.363845 9.844301 4.892526 2.266793 -31.047219 -5.453056 2.706149 -9.336942 -0.774576 -3.494910 0.000000 0.000000 0.000000 0.022032 2.900379 5.647742 1.935063 -0.982601 1.704901 10.619125 -0.697553 3.456106 0.783893 1.343908 -0.175187 0.000000 0.000000 0.000000 9.661521 -0.898731 3.030353 -1.098174 0.525450 -4.802186 7.584728 7.290097 -7.265520 0.000000 0.000000 0.000000 10.912953 -0.905001 2.699560 0.193745 15.651693 -7.806457 -1.463487 -1.106473 -1.007653 0.491669 -12.849979 -60.265129 -0.474719 -48.873784 0.264532 0.000000 0.000000 0.000000 11.328577 -0.535681 3.115755 2.189970 2.604617 7.262534 0.076228 0.183034 -0.896444 -1.401632 9.198977 56.110482 1.499019 42.267512 -1.220645 0.000000 0.000000 0.000000 
-0.254998 71.486946 0.522669 0.000000 0.000000 0.000000 -3.910575 7.049526 6.478577 -13.204820 17.515778 10.495542 14.066745 -2.871790 -0.616517 -21.428387 1.498792 0.234651 -2.210456 -0.411320 -1.500855 0.000000 0.000000 0.000000 -1.633556 3.190401 5.515079 1.940374 -4.610625 -7.246025 10.827452 4.794307 2.298606 -32.938078 -5.529566 2.702774 -9.298244 -0.755165 -3.515681 0.000000 0.000000 0.000000 0.854565 2.682958 5.564129 2.009543 -0.753655 1.788389 10.674154 -0.710126 3.340199 0.704608 0.997088 -0.359132 0.000000 0.000000 0.000000 9.760982 -0.893815 2.911064 -1.930950 0.588105 -5.009008 6.568050 6.584288 -6.509379 0.000000 0.000000 0.000000 10.777474 -0.887890 2.606451 0.069649 15.175570 -6.928285 -1.510923 -0.972863 -1.194056 -0.209346 -13.093452 -60.004837 -0.108855 -49.623718 0.282289 0.000000 0.000000 0.000000 11.295673 -0.570775 2.984846 2.116113 2.702694 6.806126 -0.071383 -0.364060 -0.789428 -0.109538 11.305541 55.080005 1.571544 44.933520 -1.134738 0.000000 0.000000 0.000000 
-0.248314 71.275879 0.326927 0.000000 0.000000 0.000000 -3.268225 7.376129 6.105799 -15.043039 17.088411 10.331404 15.732542 -2.286847 -0.409850 -22.540801 2.173050 0.508808 -2.450403 -0.426290 -0.880292 0.000000 0.000000 0.000000 -0.989707 3.364388 5.235760 0.900419 -4.292506 -7.226662 12.109936 4.613683 2.250254 -35.575628 -5.544505 2.734202 -8.802545 -0.656289 -3.698953 0.000000 0.000000 0.000000 1.850565 2.745308 5.428771 2.146187 -0.545010 1.884272 10.773599 -0.812922 3.252644 0.666054 0.675490 -0.417398 0.000000 0.000000 0.000000 9.944700 -0.968968 2.811047 -2.679778 0.658391 -5.093666 5.146673 5.798093 -5.600835 0.000000 0.000000 0.000000 10.693669 -0.948991 2.533738 -0.045086 14.527771 -6.073500 -1.199538 -0.843351 -1.273575 -0.865409 -13.415424 -59.376938 0.251124 -50.613850 0.286590 0.000000 0.000000 0.000000 11.244920 -0.678374 2.892503 2.015748 3.006985 6.293764 -0.123896 -0.917585 -0.918100 1.730715 14.098915 53.550992 1.696994 47.913292 -1.106128 0.000000 0.000000 0.000000 
-0.180537 71.058174 0.176214 0.000000 0.000000 0.000000 -2.627183 8.000982 5.818267 -17.481202 16.720354 9.730611 18.084167 -2.076197 -0.294173 -23.278548 2.629715 0.092484 -2.387678 -0.441290 -0.183356 0.000000 0.000000 0.000000 -0.382460 3.696778 5.039772 0.032430 -3.753609 -7.314243 13.270033 4.308983 2.152869 -38.225116 -5.542710 2.902371 -8.116494 -0.482343 -4.001302 0.000000 0.000000 0.000000 2.852951 3.220176 5.258396 2.253911 -0.477382 1.975221 10.950798 -1.031580 3.225050 0.775590 0.486857 -0.234795 0.000000 0.000000 0.000000 10.225320 -1.142014 2.751942 -3.213173 0.721766 -5.050507 3.446807 4.940575 -4.669514 0.000000 0.000000 0.000000 10.753686 -1.107099 2.504142 -0.095821 13.695081 -5.435821 -0.769512 -0.554393 -1.173803 -1.360752 -13.692798 -58.252354 0.485448 -51.805971 0.245488 0.000000 0.000000 0.000000 11.239697 -0.871042 2.860755 1.912356 3.497082 5.809572 0.153530 -1.163369 -1.336789 3.909837 17.183839 51.430857 1.805762 51.436751 -1.083010 0.000000 0.000000 0.000000 
-0.101388 70.883789 0.098850 0.000000 0.000000 0.000000 -2.024860 8.744379 5.693277 -20.185453 16.487122 8.792202 20.716363 -2.099052 -0.274442 -23.470588 2.829083 -0.674469 -2.116948 -0.452548 0.478194 0.000000 0.000000 0.000000 0.244178 4.227119 4.963062 -0.645599 -3.135846 -7.533453 13.928649 3.902501 2.077978 -40.148812 -5.554466 3.430496 -7.910331 -0.227515 -4.321517 0.000000 0.000000 0.000000 3.749995 4.020843 5.052761 2.341735 -0.602717 2.020180 11.251092 -1.340247 3.263573 0.996309 0.065261 0.104108 0.000000 0.000000 0.000000 10.646360 -1.407968 2.761051 -3.466699 0.748927 -4.932641 1.586221 3.972474 -3.789367 0.000000 0.000000 0.000000 11.016433 -1.355791 2.541402 -0.101817 12.721908 -5.033196 -0.258359 -0.058112 -0.853829 -1.637240 -13.884389 -56.720449 0.563504 -53.407172 0.223562 0.000000 0.000000 0.000000 11.346805 -1.156970 2.902539 1.803168 3.995121 5.356330 0.731514 -1.141733 -1.835949 6.095521 20.281695 48.831170 1.879333 55.727653 -1.096382 0.000000 0.000000 0.000000 
0.013329 70.770699 0.061785 0.000000 0.000000 0.000000 -1.379875 9.471351 5.734670 -22.715976 16.563631 7.617588 23.119195 -2.128742 -0.382337 -23.600377 2.707917 -1.088252 -1.626216 -0.486591 1.017828 0.000000 0.000000 0.000000 1.054231 4.843916 4.962772 -1.098884 -2.634578 -7.868155 13.889545 3.454430 2.038627 -41.139493 -5.580627 4.238664 -8.435127 0.072753 -4.522158 0.000000 0.000000 0.000000 4.505889 4.955374 4.843775 2.430556 -0.873156 1.979550 11.715263 -1.640471 3.367501 1.109681 -0.373556 0.328774 0.000000 0.000000 0.000000 11.270249 -1.683940 2.866544 -3.451200 0.731135 -4.805602 -0.360714 2.960536 -3.031760 0.000000 0.000000 0.000000 11.536814 -1.613817 2.652766 -0.080306 11.686227 -4.854460 0.144417 0.496056 -0.334745 -1.524724 -14.111905 -55.016146 0.598125 -55.590339 0.303876 0.000000 0.000000 0.000000 11.688159 -1.477950 3.015416 1.710782 4.401206 4.829730 1.191695 -0.917672 -2.350107 8.136970 23.143177 45.840961 1.801992 60.643276 -1.026376 0.000000 0.000000 0.000000 
0.124492 70.715721 0.038431 0.000000 0.000000 0.000000 -0.721013 10.116009 5.893044 -24.704337 16.945460 6.355240 24.676027 -1.971214 -0.654203 -24.030486 2.239895 -0.643335 -1.310825 -0.540781 1.541353 0.000000 0.000000 0.000000 2.080630 5.446230 5.011373 -1.338821 -2.461236 -8.206410 13.395858 2.861568 2.032695 -41.679597 -5.586514 4.824636 -8.910478 0.307267 -4.490464 0.000000 0.000000 0.000000 5.221965 5.784463 4.635692 2.541801 -1.195322 1.818914 12.366966 -1.818506 3.516044 0.918084 -0.567149 0.249737 0.000000 0.000000 0.000000 12.085999 -1.874602 3.053572 -3.386227 0.662086 -4.773065 -2.401522 1.976415 -2.388648 0.000000 0.000000 0.000000 12.295869 -1.780559 2.827660 -0.045817 10.657611 -4.796822 0.512430 0.782865 0.124651 -1.162228 -14.339378 -53.432174 0.745370 -58.091783 0.525730 0.000000 0.000000 0.000000 12.314006 -1.732036 3.179826 1.657229 4.632321 4.257685 1.339724 -0.542737 -2.836057 9.852216 25.653342 42.635031 1.525255 65.591700 -0.815409 0.000000 0.000000 0.000000 
0.218585 70.677826 0.049713 0.000000 0.000000 0.000000 0.065602 10.582751 6.036763 -26.170891 17.544832 5.149188 25.325354 -1.626549 -1.035684 -24.829508 1.546166 0.726770 -1.420821 -0.609014 2.164419 0.000000 0.000000 0.000000 3.283714 5.717564 5.074165 -1.709257 -2.650183 -8.496293 13.009315 2.093616 2.110231 -42.405025 -5.551944 4.942420 -8.709634 0.401540 -4.255984 0.000000 0.000000 0.000000 6.062398 6.251084 4.480074 2.685131 -1.454343 1.499462 13.201378 -1.796141 3.666151 0.560910 -0.620460 0.011954 0.000000 0.000000 0.000000 13.033710 -1.907737 3.278298 -3.478408 0.575976 -4.818052 -4.556504 1.118965 -1.773512 0.000000 0.000000 0.000000 13.289018 -1.778050 3.028380 -0.029121 9.745554 -4.587938 1.080852 0.731363 0.465754 -0.608549 -14.495372 -52.220225 0.987331 -60.481735 0.852606 0.000000 0.000000 0.000000 13.237167 -1.817470 3.351226 1.584041 4.616798 3.638153 1.285199 -0.025845 -3.053882 11.267877 27.937499 39.411219 1.129187 69.771147 -0.562043 0.000000 0.000000 0.000000 
